# xmcd
#
# Track frame offsets:
#	150
#	18533
#	36594
#	50514
#	71063
#	86176
#	110143
#	123314
#	142171
#	159791
#	174074
#	191458
#	206525
#	224625
#	239762
#	254765
#	274265
#	292607
#	309938
#	326062
#
# Disc length: 4561 seconds
#
# Revision: 0
# Processed by: cddbd v1.5.1PL0 Copyright (c) Steve Scherf et al.
# Submitted via: dBpowerAMP V4.0
#
DISCID=3911cf14
DTITLE=José José - The Best Of
DYEAR=2004
DGENRE=Ballad
TTITLE0=El amor acaba
TTITLE1=40 y 20
TTITLE2=Y qué?
TTITLE3=Si me dejas
TTITLE4=Payaso
TTITLE5=Voy a llenarte
TTITLE6=Me vas a echar de menos
TTITLE7=Gavilán o paloma
TTITLE8=Amar y querer
TTITLE9=La nave del olvido
TTITLE10=Cuando vayas conmigo
TTITLE11=Desesperado
TTITLE12=El triste
TTITLE13=Preso
TTITLE14=Lo pasado
TTITLE15=Volcán
TTITLE16=Lo que no fue, no será
TTITLE17=Me basta
TTITLE18=Será
TTITLE19=O tú o yo
EXTD=
EXTT0=
EXTT1=
EXTT2=
EXTT3=
EXTT4=
EXTT5=
EXTT6=
EXTT7=
EXTT8=
EXTT9=
EXTT10=
EXTT11=
EXTT12=
EXTT13=
EXTT14=
EXTT15=
EXTT16=
EXTT17=
EXTT18=
EXTT19=
PLAYORDER=
